<svg width="0" height="0" class="hidden">
  <symbol xmlns="http://www.w3.org/2000/svg" viewBox="0 0 32 43" id="map">
    <path d="M15.988 0C7.17 0 0 7.171 0 15.988c0 3.127.771 5.37 2.395 7.77l12.68 18.744a1.102 1.102 0 001.826 0l12.68-18.744c1.623-2.4 2.395-4.643 2.395-7.77C31.976 7.17 24.805 0 15.988 0zm0 2.205A13.766 13.766 0 0129.77 15.988c0 2.799-.55 4.38-2.015 6.546l-11.767 17.4-11.767-17.4c-1.466-2.166-2.016-3.747-2.016-6.546A13.766 13.766 0 0115.988 2.205zm0 5.513c-4.25 0-7.718 3.469-7.718 7.718 0 4.25 3.468 7.719 7.718 7.719s7.718-3.469 7.718-7.719-3.469-7.718-7.718-7.718zm0 2.205a5.496 5.496 0 015.513 5.513 5.496 5.496 0 01-5.513 5.513 5.496 5.496 0 01-5.513-5.513 5.496 5.496 0 015.513-5.513z" fill="#fff"></path>
  </symbol>
  <symbol xmlns="http://www.w3.org/2000/svg" viewBox="0 0 40 40" id="price">
    <path d="M39.231 5.602a2.434 2.434 0 00-.708-1.566l-2.56-2.56A2.433 2.433 0 0034.399.77L22.503.005a2.435 2.435 0 00-1.877.708L.712 20.627a2.438 2.438 0 000 3.444L15.93 39.288a2.438 2.438 0 003.444 0l19.914-19.914a2.435 2.435 0 00.708-1.878l-.764-11.894zm-1.515 12.2L17.802 37.718a.213.213 0 01-.301 0L2.284 22.498a.213.213 0 010-.3L22.196 2.284a.214.214 0 01.164-.062l11.894.763a.22.22 0 01.137.062l2.56 2.56a.215.215 0 01.062.137l.763 11.894a.215.215 0 01-.061.164zM32.45 7.553a4.496 4.496 0 10-6.357 6.358 4.496 4.496 0 006.357-6.358zm-1.571 4.787a2.274 2.274 0 11-3.217-3.216 2.274 2.274 0 013.217 3.216z" fill="#fff"></path>
  </symbol>
  <symbol aria-hidden="true" data-prefix="fab" data-icon="twitter" xmlns="http://www.w3.org/2000/svg" viewBox="0 0 512 512" id="twitter">
    <path d="M459.37 151.716c.325 4.548.325 9.097.325 13.645 0 138.72-105.583 298.558-298.558 298.558-59.452 0-114.68-17.219-161.137-47.106 8.447.974 16.568 1.299 25.34 1.299 49.055 0 94.213-16.568 130.274-44.832-46.132-.975-84.792-31.188-98.112-72.772 6.498.974 12.995 1.624 19.818 1.624 9.421 0 18.843-1.3 27.614-3.573-48.081-9.747-84.143-51.98-84.143-102.985v-1.299c13.969 7.797 30.214 12.67 47.431 13.319-28.264-18.843-46.781-51.005-46.781-87.391 0-19.492 5.197-37.36 14.294-52.954 51.655 63.675 129.3 105.258 216.365 109.807-1.624-7.797-2.599-15.918-2.599-24.04 0-57.828 46.782-104.934 104.934-104.934 30.213 0 57.502 12.67 76.67 33.137 23.715-4.548 46.456-13.32 66.599-25.34-7.798 24.366-24.366 44.833-46.132 57.827 21.117-2.273 41.584-8.122 60.426-16.243-14.292 20.791-32.161 39.308-52.628 54.253z"></path>
  </symbol>
  <symbol aria-hidden="true" data-prefix="fas" data-icon="chevron-left" xmlns="http://www.w3.org/2000/svg" viewBox="0 0 320 512" id="chevron-left-solid">
    <path d="M34.52 239.03L228.87 44.69c9.37-9.37 24.57-9.37 33.94 0l22.67 22.67c9.36 9.36 9.37 24.52.04 33.9L131.49 256l154.02 154.75c9.34 9.38 9.32 24.54-.04 33.9l-22.67 22.67c-9.37 9.37-24.57 9.37-33.94 0L34.52 272.97c-9.37-9.37-9.37-24.57 0-33.94z"></path>
  </symbol>
  <symbol aria-hidden="true" data-prefix="fas" data-icon="chevron-right" xmlns="http://www.w3.org/2000/svg" viewBox="0 0 320 512" id="chevron-right-solid">
    <path d="M285.476 272.971L91.132 467.314c-9.373 9.373-24.569 9.373-33.941 0l-22.667-22.667c-9.357-9.357-9.375-24.522-.04-33.901L188.505 256 34.484 101.255c-9.335-9.379-9.317-24.544.04-33.901l22.667-22.667c9.373-9.373 24.569-9.373 33.941 0L285.475 239.03c9.373 9.372 9.373 24.568.001 33.941z"></path>
  </symbol>
  <symbol aria-hidden="true" data-prefix="fab" data-icon="dribbble" xmlns="http://www.w3.org/2000/svg" viewBox="0 0 512 512" id="dribble">
    <path d="M256 8C119.252 8 8 119.252 8 256s111.252 248 248 248 248-111.252 248-248S392.748 8 256 8zm163.97 114.366c29.503 36.046 47.369 81.957 47.835 131.955-6.984-1.477-77.018-15.682-147.502-6.818-5.752-14.041-11.181-26.393-18.617-41.614 78.321-31.977 113.818-77.482 118.284-83.523zM396.421 97.87c-3.81 5.427-35.697 48.286-111.021 76.519-34.712-63.776-73.185-116.168-79.04-124.008 67.176-16.193 137.966 1.27 190.061 47.489zm-230.48-33.25c5.585 7.659 43.438 60.116 78.537 122.509-99.087 26.313-186.36 25.934-195.834 25.809C62.38 147.205 106.678 92.573 165.941 64.62zM44.17 256.323c0-2.166.043-4.322.108-6.473 9.268.19 111.92 1.513 217.706-30.146 6.064 11.868 11.857 23.915 17.174 35.949-76.599 21.575-146.194 83.527-180.531 142.306C64.794 360.405 44.17 310.73 44.17 256.323zm81.807 167.113c22.127-45.233 82.178-103.622 167.579-132.756 29.74 77.283 42.039 142.053 45.189 160.638-68.112 29.013-150.015 21.053-212.768-27.882zm248.38 8.489c-2.171-12.886-13.446-74.897-41.152-151.033 66.38-10.626 124.7 6.768 131.947 9.055-9.442 58.941-43.273 109.844-90.795 141.978z"></path>
  </symbol>
  <symbol aria-hidden="true" data-prefix="fab" data-icon="facebook-f" xmlns="http://www.w3.org/2000/svg" viewBox="0 0 320 512" id="facebook">
    <path d="M279.14 288l14.22-92.66h-88.91v-60.13c0-25.35 12.42-50.06 52.24-50.06h40.42V6.26S260.43 0 225.36 0c-73.22 0-121.08 44.38-121.08 124.72v70.62H22.89V288h81.39v224h100.17V288z"></path>
  </symbol>
  <symbol xmlns="http://www.w3.org/2000/svg" viewBox="0 0 65 65" id="icon-fast-food">
    <g clip-path="url(#clip0)">
      <path d="M61.618 18.891a1.032 1.032 0 00-.746-.32h-29.92a1.032 1.032 0 00-1.031 1.08l.745 16.025a1.031 1.031 0 102.062-.097l-.695-14.944h27.76l-1.968 42.301H34.653a1.032 1.032 0 100 2.064H58.81a1.03 1.03 0 001.03-.983l2.064-44.365a1.03 1.03 0 00-.285-.761z"></path>
      <path d="M42.301 56.746H5.16c-.57 0-1.032.462-1.032 1.032C4.128 61.76 7.368 65 11.35 65h24.762c3.982 0 7.222-3.24 7.222-7.222 0-.57-.462-1.032-1.032-1.032zm-6.19 6.19H11.349a5.167 5.167 0 01-5.055-4.127h34.872a5.168 5.168 0 01-5.055 4.128z"></path>
      <path d="M42.302 50.556H5.159a4.131 4.131 0 00-4.127 4.127A4.131 4.131 0 005.16 58.81h37.143a4.132 4.132 0 004.127-4.127 4.132 4.132 0 00-4.127-4.127zm0 6.19H5.159a2.066 2.066 0 01-2.063-2.063c0-1.138.925-2.064 2.063-2.064h37.143c1.138 0 2.063.926 2.063 2.064a2.066 2.066 0 01-2.063 2.063z"></path>
      <path d="M45.397 30.953c-4.708 0-8.816 3.18-9.99 7.732a1.032 1.032 0 101.997.515 8.249 8.249 0 017.992-6.184c4.552 0 8.254 3.703 8.254 8.254s-3.702 8.254-8.253 8.254a8.224 8.224 0 01-2.755-.47 1.031 1.031 0 10-.689 1.945 10.3 10.3 0 003.444.588c5.689 0 10.317-4.628 10.317-10.317s-4.628-10.318-10.317-10.318z"></path>
      <path d="M25.794 34.048h-4.128c-9.671 0-17.54 7.868-17.54 17.54 0 .57.463 1.031 1.033 1.031H42.3c.57 0 1.032-.461 1.032-1.032 0-9.671-7.868-17.54-17.54-17.54zM6.224 50.556C6.759 42.5 13.48 36.11 21.667 36.11h4.128c8.186 0 14.908 6.39 15.441 14.445H6.225z"></path>
      <path d="M15.476 40.238h-2.063v2.063h2.063v-2.063zm-1.032 4.127h-2.063v2.063h2.063v-2.063zm12.381-5.159h-2.063v2.064h2.063v-2.064zm6.191 5.159h-2.064v2.063h2.064v-2.063zm-9.286 1.032h-2.063v2.063h2.063v-2.063zm39.206-30.952H27.857c-.57 0-1.032.461-1.032 1.032v4.127c0 .57.462 1.031 1.032 1.031h35.08a1.03 1.03 0 001.031-1.031v-4.127c0-.57-.462-1.032-1.032-1.032zm-1.032 4.127H28.89v-2.064h33.016v2.064z"></path>
      <path d="M36.089 15.26L32.993.816a1.032 1.032 0 00-2.018.433l3.096 14.444a1.032 1.032 0 002.018-.433z"></path>
    </g>
    <defs>
      <clipPath id="clip0">
        <path d="M0 0h65v65H0z"></path>
      </clipPath>
    </defs>
  </symbol>
  <symbol xmlns="http://www.w3.org/2000/svg" viewBox="0 0 65 65" id="icon-relax">
    <g clip-path="url(#clip0)">
      <path d="M42.845 27.995c.402.161.862.066 1.168-.24a17.14 17.14 0 0114.662-4.8l5.001.769a1.084 1.084 0 00.736-1.992L33.492 2.54V-.109h-2.168v2.65L.404 21.73a1.084 1.084 0 00.736 1.992l5.001-.769a17.141 17.141 0 0114.662 4.8c.306.307.766.402 1.169.241a28.194 28.194 0 017.185-1.822V58.42h-3.252a3.252 3.252 0 000 6.503h13.007a3.252 3.252 0 000-6.504H35.66V26.173c2.465.289 4.88.901 7.185 1.822zm-1.626-2.84a29.49 29.49 0 00-17.63 0l8.82-19.392 8.81 19.393zm2.393.026L34.874 5.95 58.76 20.776a19.314 19.314 0 00-15.144 4.405h-.005zM6.055 20.776L29.942 5.95 21.2 25.182a19.314 19.314 0 00-15.145-4.405zm33.94 40.897c0 .598-.485 1.083-1.083 1.083H25.905a1.084 1.084 0 110-2.167h13.007c.598 0 1.083.485 1.083 1.084zm-6.503-3.252h-2.168V26a27.988 27.988 0 012.168 0v32.42z"></path>
      <path d="M20.485 51.917h-3.251v-8.67c0-.599-.485-1.084-1.084-1.084H5.31c-.599 0-1.084.485-1.084 1.083v8.671H.976c-.6 0-1.084.486-1.084 1.084v6.504c0 .598.485 1.084 1.084 1.084h1.083v3.251c0 .599.485 1.084 1.084 1.084h15.174c.6 0 1.084-.485 1.084-1.084v-3.252h1.084c.599 0 1.084-.485 1.084-1.084v-6.502c0-.599-.485-1.085-1.084-1.085zm-14.09 6.504v-1.084h8.67v1.084h-8.67zm0-14.09h8.67v10.838h-8.67V44.33zM2.06 54.084h2.167v4.336H2.06v-4.336zm15.174 8.672H4.227v-2.168h13.007v2.168zM19.4 58.42h-2.167v-4.336H19.4v4.336zm44.44-6.503h-3.25v-8.67c0-.599-.485-1.084-1.084-1.084h-10.84c-.598 0-1.084.485-1.084 1.083v8.671h-3.251c-.599 0-1.084.486-1.084 1.084v6.504c0 .598.485 1.084 1.084 1.084h1.084v3.251c0 .599.485 1.084 1.084 1.084h15.174c.598 0 1.083-.485 1.083-1.084v-3.252h1.084c.6 0 1.084-.485 1.084-1.084v-6.502c0-.599-.485-1.085-1.084-1.085zm-14.09 6.504v-1.084h8.671v1.084h-8.67zm0-14.09h8.671v10.838h-8.67V44.33zm-4.335 9.754h2.167v4.336h-2.167v-4.336zm15.174 8.672H47.582v-2.168H60.59v2.168zm2.168-4.336h-2.168v-4.336h2.168v4.336z"></path>
    </g>
    <defs>
      <clipPath id="clip0">
        <path d="M0 0h65v65H0z"></path>
      </clipPath>
    </defs>
  </symbol>
  <symbol xmlns="http://www.w3.org/2000/svg" viewBox="0 0 65 65" id="icon-water-polo">
    <path d="M57.217 52.967c.161-.13.32-.26.474-.387 1.166-.965 2.173-1.799 4.262-1.799a1.016 1.016 0 000-2.031c-1.557 0-2.697.367-3.622.874l.523-1.569a.998.998 0 00.052-.32v-4.213c.729-.477 1.639-.866 3.047-.866a1.016 1.016 0 000-2.031 7.49 7.49 0 00-3.047.59V27.422a3.045 3.045 0 00-4.062-2.872v-3.222a3.046 3.046 0 00-4.17-2.832 3.044 3.044 0 00-3.137-2.239 21.531 21.531 0 00-7.293-9.943 21.145 21.145 0 00-12.822-4.283c-11.76 0-21.328 9.568-21.328 21.328a21.351 21.351 0 0011.67 19.013c-.22.172-.431.345-.64.518-1.165.965-2.172 1.797-4.26 1.797-2.088 0-3.095-.833-4.26-1.797-1.283-1.062-2.737-2.265-5.557-2.265a1.016 1.016 0 000 2.031c2.089 0 3.096.834 4.262 1.799 1.282 1.06 2.735 2.264 5.555 2.264s4.273-1.203 5.555-2.264a11.01 11.01 0 011.526-1.121 21.216 21.216 0 007.278 1.35c1.22.998 2.658 2.035 5.276 2.035 1.446 0 2.516-.323 3.34-.728l.782 2.082.801 2.405c-.228.178-.448.36-.662.537-1.166.965-2.173 1.797-4.261 1.797s-3.095-.833-4.26-1.797c-1.283-1.062-2.737-2.265-5.558-2.265-2.82 0-4.273 1.203-5.555 2.264-1.166.965-2.173 1.798-4.262 1.798-2.089 0-3.095-.833-4.26-1.797-1.283-1.062-2.737-2.265-5.557-2.265a1.016 1.016 0 000 2.031c2.089 0 3.096.834 4.262 1.799 1.282 1.06 2.735 2.264 5.555 2.264s4.275-1.203 5.557-2.265c1.166-.965 2.172-1.798 4.26-1.798 2.088 0 3.096.834 4.262 1.799 1.282 1.06 2.736 2.264 5.556 2.264s4.273-1.203 5.555-2.264l.054-.044.486 1.457v3.815c-.65.388-1.264.834-1.834 1.332-1.166.965-2.173 1.798-4.261 1.798-2.089 0-3.095-.833-4.26-1.798-1.283-1.062-2.737-2.265-5.558-2.265-2.82 0-4.273 1.203-5.555 2.264-1.166.965-2.173 1.798-4.262 1.798-2.089 0-3.095-.833-4.26-1.797-1.283-1.062-2.737-2.265-5.557-2.265a1.016 1.016 0 000 2.031c2.089 0 3.096.834 4.262 1.799 1.282 1.06 2.735 2.264 5.555 2.264s4.275-1.203 5.557-2.265c1.166-.965 2.172-1.798 4.26-1.798 2.088 0 3.096.834 4.262 1.799 1.282 1.06 2.736 2.264 5.556 2.264s4.273-1.203 5.556-2.264c.181-.15.36-.297.539-.438v1.686a1.016 1.016 0 001.015 1.016h16.25a1.016 1.016 0 001.016-1.016v-.594c.285-.216.554-.437.815-.654 1.166-.965 2.174-1.799 4.263-1.799a1.016 1.016 0 000-2.031c-2.477 0-3.9.928-5.078 1.873v-4.755l.342-1.026zM45.667 17.06a3.05 3.05 0 00-.872 1.434 3.032 3.032 0 00-.898-.204L29.814 4.207a19.155 19.155 0 0115.854 12.854zm-7.33 9.747l2.288 1.457v6.861l-2.16-2.16-1.029-3.087a5.074 5.074 0 00-.743-1.427l1.644-1.644zm2.288 11.19v.596h-.284l-.439-1.318.723.723zm0-12.14l-.817-.521.817-.817v1.337zm0-4.53v.32l-5.449 5.448a5.072 5.072 0 00-2.557-.69h-1.135a1.016 1.016 0 00-.963 1.337l1.002 3.007-7.692 7.691-2.872-2.873L39.63 16.896l2.093 2.092a3.041 3.041 0 00-1.098 2.34zM28.036 42.646l-2.768-2.769 4.132-4.131 3.831 6.021a19.21 19.21 0 01-5.195.879zm2.835-8.372l1.37-1.37.286.857.703 4.22-2.36-3.707zM29.576 6.841l-4.132 4.132-3.829-6.018a19.202 19.202 0 015.192-.882l2.769 2.768zm-5.603 5.603l-3.015 3.015-6.437-6.436a19.353 19.353 0 015.152-3.334l4.3 6.755zm-4.451 4.451l-3.015 3.015-6.756-4.299a19.353 19.353 0 013.333-5.153l6.438 6.437zm-4.486 4.487l-4.132 4.131-2.768-2.767c.055-1.763.352-3.51.883-5.193l6.017 3.829zM31.012 8.277l2.873 2.874-18.672 18.672-2.873-2.873L31.012 8.277zm4.31 4.31l2.872 2.872-18.672 18.673-2.872-2.873 18.67-18.672zM8.273 25.756l16.751 16.752a19.337 19.337 0 01-16.75-16.752zm24.225 18.931a5.778 5.778 0 01-1.773-.253 21.087 21.087 0 004.126-1.077l.269.718c-.632.341-1.45.612-2.622.612zm22.345 9.141v7.11H40.625v-7.11c0-.11-.018-.218-.052-.321l-2.031-6.094a.88.88 0 00-.013-.035l-3.013-8.033-.999-5.996a1.008 1.008 0 00-.038-.155l-1.581-4.744a3.04 3.04 0 012.61 2.07l3.138 9.41a1.015 1.015 0 00.963.695h2.032a1.016 1.016 0 001.015-1.016V21.33a1.016 1.016 0 012.032 0v14.218a1.016 1.016 0 102.03 0v-16.25a1.016 1.016 0 012.032 0v16.25a1.016 1.016 0 102.031 0v-14.22a1.016 1.016 0 012.032 0v14.219a1.016 1.016 0 102.03 0v-8.125a1.016 1.016 0 012.032 0v20.147l-1.98 5.938a1.016 1.016 0 00-.051.321z"></path>
  </symbol>
  <symbol aria-hidden="true" data-prefix="fab" data-icon="linkedin-in" xmlns="http://www.w3.org/2000/svg" viewBox="0 0 448 512" id="linkedin">
    <path d="M100.28 448H7.4V148.9h92.88zM53.79 108.1C24.09 108.1 0 83.5 0 53.8a53.79 53.79 0 01107.58 0c0 29.7-24.1 54.3-53.79 54.3zM447.9 448h-92.68V302.4c0-34.7-.7-79.2-48.29-79.2-48.29 0-55.69 37.7-55.69 76.7V448h-92.78V148.9h89.08v40.8h1.3c12.4-23.5 42.69-48.3 87.88-48.3 94 0 111.28 61.9 111.28 142.3V448z"></path>
  </symbol>

  <symbol id="youtube" aria-hidden="true" focusable="false" data-prefix="fab" data-icon="youtube" class="svg-inline--fa   fa-youtube fa-w-18" role="img" xmlns="http://www.w3.org/2000/svg" viewBox="0 0 576 512">
    <path d="M549.655 124.083c-6.281-23.65-24.787-42.276-48.284-48.597C458.781 64 288 64 288 64S117.22 64 74.629 75.486c-23.497 6.322-42.003 24.947-48.284 48.597-11.412 42.867-11.412 132.305-11.412 132.305s0 89.438 11.412 132.305c6.281 23.65 24.787 41.5 48.284 47.821C117.22 448 288 448 288 448s170.78 0 213.371-11.486c23.497-6.321 42.003-24.171 48.284-47.821 11.412-42.867 11.412-132.305 11.412-132.305s0-89.438-11.412-132.305zm-317.51 213.508V175.185l142.739 81.205-142.739 81.201z"></path>
  </symbol>

  <symbol id="play" aria-hidden="true" focusable="false" data-prefix="fas" data-icon="play" class="svg-inline--fa fa-play fa-w-14" role="img" xmlns="http://www.w3.org/2000/svg" viewBox="0 0 448 512"><path d="M424.4 214.7L72.4 6.6C43.8-10.3 0 6.1 0 47.9V464c0 37.5 40.7 60.1 72.4 41.3l352-208c31.4-18.5 31.5-64.1 0-82.6z"></path></symbol>

  <symbol id="check" aria-hidden="true" focusable="false" data-prefix="fas" data-icon="check" class="svg-inline--fa fa-check fa-w-16" role="img" xmlns="http://www.w3.org/2000/svg" viewBox="0 0 512 512"><path d="M173.898 439.404l-166.4-166.4c-9.997-9.997-9.997-26.206 0-36.204l36.203-36.204c9.997-9.998 26.207-9.998 36.204 0L192 312.69 432.095 72.596c9.997-9.997 26.207-9.997 36.204 0l36.203 36.204c9.997 9.997 9.997 26.206 0 36.204l-294.4 294.401c-9.998 9.997-26.207 9.997-36.204-.001z"></path></symbol>

  <symbol id="tel" aria-hidden="true" focusable="false" data-prefix="fas" data-icon="phone-alt" class="svg-inline--fa fa-phone-alt fa-w-16" role="img" xmlns="http://www.w3.org/2000/svg" viewBox="0 0 512 512"><path fill="#fff" d="M497.39 361.8l-112-48a24 24 0 0 0-28 6.9l-49.6 60.6A370.66 370.66 0 0 1 130.6 204.11l60.6-49.6a23.94 23.94 0 0 0 6.9-28l-48-112A24.16 24.16 0 0 0 122.6.61l-104 24A24 24 0 0 0 0 48c0 256.5 207.9 464 464 464a24 24 0 0 0 23.4-18.6l24-104a24.29 24.29 0 0 0-14.01-27.6z"></path></symbol>

  <symbol id="mail" aria-hidden="true" focusable="false" data-prefix="fas" data-icon="envelope" class="svg-inline--fa fa-envelope fa-w-16" role="img" xmlns="http://www.w3.org/2000/svg" viewBox="0 0 512 512"><path d="M502.3 190.8c3.9-3.1 9.7-.2 9.7 4.7V400c0 26.5-21.5 48-48 48H48c-26.5 0-48-21.5-48-48V195.6c0-5 5.7-7.8 9.7-4.7 22.4 17.4 52.1 39.5 154.1 113.6 21.1 15.4 56.7 47.8 92.2 47.6 35.7.3 72-32.8 92.3-47.6 102-74.1 131.6-96.3 154-113.7zM256 320c23.2.4 56.6-29.2 73.4-41.4 132.7-96.3 142.8-104.7 173.4-128.7 5.8-4.5 9.2-11.5 9.2-18.9v-19c0-26.5-21.5-48-48-48H48C21.5 64 0 85.5 0 112v19c0 7.4 3.4 14.3 9.2 18.9 30.6 23.9 40.7 32.4 173.4 128.7 16.8 12.2 50.2 41.8 73.4 41.4z"></path></symbol>

  <symbol id="burger" aria-hidden="true" focusable="false" data-prefix="fas" data-icon="bars" class="svg-inline--fa fa-bars fa-w-14" role="img" xmlns="http://www.w3.org/2000/svg" viewBox="0 0 448 512"><path d="M16 132h416c8.837 0 16-7.163 16-16V76c0-8.837-7.163-16-16-16H16C7.163 60 0 67.163 0 76v40c0 8.837 7.163 16 16 16zm0 160h416c8.837 0 16-7.163 16-16v-40c0-8.837-7.163-16-16-16H16c-8.837 0-16 7.163-16 16v40c0 8.837 7.163 16 16 16zm0 160h416c8.837 0 16-7.163 16-16v-40c0-8.837-7.163-16-16-16H16c-8.837 0-16 7.163-16 16v40c0 8.837 7.163 16 16 16z"></path></symbol>

</svg>